<mxfile host="app.diagrams.net" modified="2020-10-12T14:11:32.083Z" agent="5.0 (Windows NT 10.0; Win64; x64) AppleWebKit/537.36 (KHTML, like Gecko) Chrome/85.0.4183.121 Safari/537.36" etag="UNSQDKA2RDmKnJuXDyNc" version="13.7.9" type="github">
  <diagram id="r_QWfCS0-fJkpJQczVmZ" name="Page-1">
    <mxGraphModel dx="2249" dy="794" grid="1" gridSize="10" guides="1" tooltips="1" connect="1" arrows="1" fold="1" page="1" pageScale="1" pageWidth="827" pageHeight="1169" math="0" shadow="0">
      <root>
        <mxCell id="0" />
        <mxCell id="1" parent="0" />
        <mxCell id="SeN86KywqC2dADdFLRv4-41" style="edgeStyle=orthogonalEdgeStyle;rounded=0;orthogonalLoop=1;jettySize=auto;html=1;" edge="1" parent="1" source="SeN86KywqC2dADdFLRv4-18" target="SeN86KywqC2dADdFLRv4-21">
          <mxGeometry relative="1" as="geometry" />
        </mxCell>
        <mxCell id="SeN86KywqC2dADdFLRv4-40" style="edgeStyle=orthogonalEdgeStyle;rounded=0;orthogonalLoop=1;jettySize=auto;html=1;entryX=0.5;entryY=1;entryDx=0;entryDy=0;" edge="1" parent="1" source="SeN86KywqC2dADdFLRv4-21" target="SeN86KywqC2dADdFLRv4-24">
          <mxGeometry relative="1" as="geometry" />
        </mxCell>
        <mxCell id="SeN86KywqC2dADdFLRv4-36" style="edgeStyle=orthogonalEdgeStyle;rounded=0;orthogonalLoop=1;jettySize=auto;html=1;" edge="1" parent="1" source="SeN86KywqC2dADdFLRv4-27" target="SeN86KywqC2dADdFLRv4-33">
          <mxGeometry relative="1" as="geometry" />
        </mxCell>
        <mxCell id="SeN86KywqC2dADdFLRv4-39" style="edgeStyle=orthogonalEdgeStyle;rounded=0;orthogonalLoop=1;jettySize=auto;html=1;entryX=0;entryY=0.115;entryDx=0;entryDy=0;entryPerimeter=0;" edge="1" parent="1" source="SeN86KywqC2dADdFLRv4-27" target="SeN86KywqC2dADdFLRv4-22">
          <mxGeometry relative="1" as="geometry">
            <Array as="points">
              <mxPoint x="220" y="189" />
            </Array>
          </mxGeometry>
        </mxCell>
        <mxCell id="SeN86KywqC2dADdFLRv4-58" style="edgeStyle=orthogonalEdgeStyle;rounded=0;orthogonalLoop=1;jettySize=auto;html=1;entryX=0.5;entryY=1;entryDx=0;entryDy=0;" edge="1" parent="1" source="SeN86KywqC2dADdFLRv4-27" target="SeN86KywqC2dADdFLRv4-48">
          <mxGeometry relative="1" as="geometry">
            <Array as="points">
              <mxPoint x="130" y="160" />
              <mxPoint x="420" y="160" />
            </Array>
          </mxGeometry>
        </mxCell>
        <mxCell id="SeN86KywqC2dADdFLRv4-27" value="QuizNight" style="swimlane;fontStyle=1;align=center;verticalAlign=top;childLayout=stackLayout;horizontal=1;startSize=26;horizontalStack=0;resizeParent=1;resizeParentMax=0;resizeLast=0;collapsible=1;marginBottom=0;" vertex="1" parent="1">
          <mxGeometry x="90" y="250" width="160" height="60" as="geometry" />
        </mxCell>
        <mxCell id="SeN86KywqC2dADdFLRv4-28" value="+ quizPin: number" style="text;strokeColor=none;fillColor=none;align=left;verticalAlign=top;spacingLeft=4;spacingRight=4;overflow=hidden;rotatable=0;points=[[0,0.5],[1,0.5]];portConstraint=eastwest;" vertex="1" parent="SeN86KywqC2dADdFLRv4-27">
          <mxGeometry y="26" width="160" height="26" as="geometry" />
        </mxCell>
        <mxCell id="SeN86KywqC2dADdFLRv4-29" value="" style="line;strokeWidth=1;fillColor=none;align=left;verticalAlign=middle;spacingTop=-1;spacingLeft=3;spacingRight=3;rotatable=0;labelPosition=right;points=[];portConstraint=eastwest;" vertex="1" parent="SeN86KywqC2dADdFLRv4-27">
          <mxGeometry y="52" width="160" height="8" as="geometry" />
        </mxCell>
        <mxCell id="SeN86KywqC2dADdFLRv4-37" style="edgeStyle=orthogonalEdgeStyle;rounded=0;orthogonalLoop=1;jettySize=auto;html=1;entryX=0.5;entryY=0;entryDx=0;entryDy=0;" edge="1" parent="1" source="SeN86KywqC2dADdFLRv4-33" target="SeN86KywqC2dADdFLRv4-43">
          <mxGeometry relative="1" as="geometry" />
        </mxCell>
        <mxCell id="SeN86KywqC2dADdFLRv4-33" value="QuizRound" style="swimlane;fontStyle=1;align=center;verticalAlign=top;childLayout=stackLayout;horizontal=1;startSize=26;horizontalStack=0;resizeParent=1;resizeParentMax=0;resizeLast=0;collapsible=1;marginBottom=0;" vertex="1" parent="1">
          <mxGeometry x="340" y="250" width="160" height="60" as="geometry" />
        </mxCell>
        <mxCell id="SeN86KywqC2dADdFLRv4-34" value="+ roundNumber: number" style="text;strokeColor=none;fillColor=none;align=left;verticalAlign=top;spacingLeft=4;spacingRight=4;overflow=hidden;rotatable=0;points=[[0,0.5],[1,0.5]];portConstraint=eastwest;" vertex="1" parent="SeN86KywqC2dADdFLRv4-33">
          <mxGeometry y="26" width="160" height="26" as="geometry" />
        </mxCell>
        <mxCell id="SeN86KywqC2dADdFLRv4-35" value="" style="line;strokeWidth=1;fillColor=none;align=left;verticalAlign=middle;spacingTop=-1;spacingLeft=3;spacingRight=3;rotatable=0;labelPosition=right;points=[];portConstraint=eastwest;" vertex="1" parent="SeN86KywqC2dADdFLRv4-33">
          <mxGeometry y="52" width="160" height="8" as="geometry" />
        </mxCell>
        <mxCell id="SeN86KywqC2dADdFLRv4-42" style="edgeStyle=orthogonalEdgeStyle;rounded=0;orthogonalLoop=1;jettySize=auto;html=1;" edge="1" parent="1" source="SeN86KywqC2dADdFLRv4-18" target="SeN86KywqC2dADdFLRv4-43">
          <mxGeometry relative="1" as="geometry">
            <mxPoint x="503.03999999999996" y="440.99199999999996" as="targetPoint" />
            <Array as="points">
              <mxPoint x="640" y="440" />
            </Array>
          </mxGeometry>
        </mxCell>
        <mxCell id="SeN86KywqC2dADdFLRv4-18" value="Answer" style="swimlane;fontStyle=1;align=center;verticalAlign=top;childLayout=stackLayout;horizontal=1;startSize=26;horizontalStack=0;resizeParent=1;resizeParentMax=0;resizeLast=0;collapsible=1;marginBottom=0;" vertex="1" parent="1">
          <mxGeometry x="560" y="330" width="160" height="60" as="geometry" />
        </mxCell>
        <mxCell id="SeN86KywqC2dADdFLRv4-19" value="+ answer: string" style="text;strokeColor=none;fillColor=none;align=left;verticalAlign=top;spacingLeft=4;spacingRight=4;overflow=hidden;rotatable=0;points=[[0,0.5],[1,0.5]];portConstraint=eastwest;" vertex="1" parent="SeN86KywqC2dADdFLRv4-18">
          <mxGeometry y="26" width="160" height="26" as="geometry" />
        </mxCell>
        <mxCell id="SeN86KywqC2dADdFLRv4-20" value="" style="line;strokeWidth=1;fillColor=none;align=left;verticalAlign=middle;spacingTop=-1;spacingLeft=3;spacingRight=3;rotatable=0;labelPosition=right;points=[];portConstraint=eastwest;" vertex="1" parent="SeN86KywqC2dADdFLRv4-18">
          <mxGeometry y="52" width="160" height="8" as="geometry" />
        </mxCell>
        <mxCell id="SeN86KywqC2dADdFLRv4-46" style="edgeStyle=orthogonalEdgeStyle;rounded=0;orthogonalLoop=1;jettySize=auto;html=1;" edge="1" parent="1" source="SeN86KywqC2dADdFLRv4-43" target="SeN86KywqC2dADdFLRv4-14">
          <mxGeometry relative="1" as="geometry">
            <Array as="points">
              <mxPoint x="320" y="440" />
              <mxPoint x="320" y="340" />
            </Array>
          </mxGeometry>
        </mxCell>
        <mxCell id="SeN86KywqC2dADdFLRv4-43" value="Questioning" style="swimlane;fontStyle=1;align=center;verticalAlign=top;childLayout=stackLayout;horizontal=1;startSize=26;horizontalStack=0;resizeParent=1;resizeParentMax=0;resizeLast=0;collapsible=1;marginBottom=0;" vertex="1" parent="1">
          <mxGeometry x="340" y="410" width="160" height="60" as="geometry" />
        </mxCell>
        <mxCell id="SeN86KywqC2dADdFLRv4-54" value="+ questionNumber: number" style="text;strokeColor=none;fillColor=none;align=left;verticalAlign=top;spacingLeft=4;spacingRight=4;overflow=hidden;rotatable=0;points=[[0,0.5],[1,0.5]];portConstraint=eastwest;" vertex="1" parent="SeN86KywqC2dADdFLRv4-43">
          <mxGeometry y="26" width="160" height="26" as="geometry" />
        </mxCell>
        <mxCell id="SeN86KywqC2dADdFLRv4-45" value="" style="line;strokeWidth=1;fillColor=none;align=left;verticalAlign=middle;spacingTop=-1;spacingLeft=3;spacingRight=3;rotatable=0;labelPosition=right;points=[];portConstraint=eastwest;" vertex="1" parent="SeN86KywqC2dADdFLRv4-43">
          <mxGeometry y="52" width="160" height="8" as="geometry" />
        </mxCell>
        <mxCell id="SeN86KywqC2dADdFLRv4-51" style="edgeStyle=orthogonalEdgeStyle;rounded=0;orthogonalLoop=1;jettySize=auto;html=1;" edge="1" parent="1" source="SeN86KywqC2dADdFLRv4-30" target="SeN86KywqC2dADdFLRv4-48">
          <mxGeometry relative="1" as="geometry">
            <Array as="points">
              <mxPoint x="50" y="555" />
              <mxPoint x="50" y="107" />
            </Array>
          </mxGeometry>
        </mxCell>
        <mxCell id="SeN86KywqC2dADdFLRv4-68" style="edgeStyle=orthogonalEdgeStyle;rounded=0;orthogonalLoop=1;jettySize=auto;html=1;entryX=0.75;entryY=1;entryDx=0;entryDy=0;" edge="1" parent="1" source="SeN86KywqC2dADdFLRv4-30" target="SeN86KywqC2dADdFLRv4-18">
          <mxGeometry relative="1" as="geometry" />
        </mxCell>
        <mxCell id="SeN86KywqC2dADdFLRv4-30" value="Grade" style="swimlane;fontStyle=1;align=center;verticalAlign=top;childLayout=stackLayout;horizontal=1;startSize=26;horizontalStack=0;resizeParent=1;resizeParentMax=0;resizeLast=0;collapsible=1;marginBottom=0;" vertex="1" parent="1">
          <mxGeometry x="340" y="525" width="160" height="60" as="geometry" />
        </mxCell>
        <mxCell id="SeN86KywqC2dADdFLRv4-31" value="+ isCorrect: boolean" style="text;strokeColor=none;fillColor=none;align=left;verticalAlign=top;spacingLeft=4;spacingRight=4;overflow=hidden;rotatable=0;points=[[0,0.5],[1,0.5]];portConstraint=eastwest;" vertex="1" parent="SeN86KywqC2dADdFLRv4-30">
          <mxGeometry y="26" width="160" height="26" as="geometry" />
        </mxCell>
        <mxCell id="SeN86KywqC2dADdFLRv4-32" value="" style="line;strokeWidth=1;fillColor=none;align=left;verticalAlign=middle;spacingTop=-1;spacingLeft=3;spacingRight=3;rotatable=0;labelPosition=right;points=[];portConstraint=eastwest;" vertex="1" parent="SeN86KywqC2dADdFLRv4-30">
          <mxGeometry y="52" width="160" height="8" as="geometry" />
        </mxCell>
        <mxCell id="SeN86KywqC2dADdFLRv4-52" value="" style="endArrow=block;endSize=16;endFill=0;html=1;" edge="1" parent="1" source="SeN86KywqC2dADdFLRv4-48" target="SeN86KywqC2dADdFLRv4-24">
          <mxGeometry width="160" relative="1" as="geometry">
            <mxPoint x="370" y="100" as="sourcePoint" />
            <mxPoint x="530" y="100" as="targetPoint" />
          </mxGeometry>
        </mxCell>
        <mxCell id="SeN86KywqC2dADdFLRv4-24" value="Person" style="swimlane;fontStyle=1;align=center;verticalAlign=top;childLayout=stackLayout;horizontal=1;startSize=26;horizontalStack=0;resizeParent=1;resizeParentMax=0;resizeLast=0;collapsible=1;marginBottom=0;" vertex="1" parent="1">
          <mxGeometry x="560" y="90" width="160" height="34" as="geometry" />
        </mxCell>
        <mxCell id="SeN86KywqC2dADdFLRv4-26" value="" style="line;strokeWidth=1;fillColor=none;align=left;verticalAlign=middle;spacingTop=-1;spacingLeft=3;spacingRight=3;rotatable=0;labelPosition=right;points=[];portConstraint=eastwest;" vertex="1" parent="SeN86KywqC2dADdFLRv4-24">
          <mxGeometry y="26" width="160" height="8" as="geometry" />
        </mxCell>
        <mxCell id="SeN86KywqC2dADdFLRv4-48" value="QuizMaster" style="swimlane;fontStyle=1;align=center;verticalAlign=top;childLayout=stackLayout;horizontal=1;startSize=26;horizontalStack=0;resizeParent=1;resizeParentMax=0;resizeLast=0;collapsible=1;marginBottom=0;" vertex="1" parent="1">
          <mxGeometry x="340" y="90" width="160" height="34" as="geometry" />
        </mxCell>
        <mxCell id="SeN86KywqC2dADdFLRv4-50" value="" style="line;strokeWidth=1;fillColor=none;align=left;verticalAlign=middle;spacingTop=-1;spacingLeft=3;spacingRight=3;rotatable=0;labelPosition=right;points=[];portConstraint=eastwest;" vertex="1" parent="SeN86KywqC2dADdFLRv4-48">
          <mxGeometry y="26" width="160" height="8" as="geometry" />
        </mxCell>
        <mxCell id="SeN86KywqC2dADdFLRv4-21" value="Team" style="swimlane;fontStyle=1;align=center;verticalAlign=top;childLayout=stackLayout;horizontal=1;startSize=26;horizontalStack=0;resizeParent=1;resizeParentMax=0;resizeLast=0;collapsible=1;marginBottom=0;" vertex="1" parent="1">
          <mxGeometry x="535" y="160" width="210" height="112" as="geometry" />
        </mxCell>
        <mxCell id="SeN86KywqC2dADdFLRv4-22" value="+ teamName: string" style="text;strokeColor=none;fillColor=none;align=left;verticalAlign=top;spacingLeft=4;spacingRight=4;overflow=hidden;rotatable=0;points=[[0,0.5],[1,0.5]];portConstraint=eastwest;" vertex="1" parent="SeN86KywqC2dADdFLRv4-21">
          <mxGeometry y="26" width="210" height="26" as="geometry" />
        </mxCell>
        <mxCell id="SeN86KywqC2dADdFLRv4-23" value="" style="line;strokeWidth=1;fillColor=none;align=left;verticalAlign=middle;spacingTop=-1;spacingLeft=3;spacingRight=3;rotatable=0;labelPosition=right;points=[];portConstraint=eastwest;" vertex="1" parent="SeN86KywqC2dADdFLRv4-21">
          <mxGeometry y="52" width="210" height="8" as="geometry" />
        </mxCell>
        <mxCell id="SeN86KywqC2dADdFLRv4-55" value="/ score: number" style="text;strokeColor=none;fillColor=none;align=left;verticalAlign=top;spacingLeft=4;spacingRight=4;overflow=hidden;rotatable=0;points=[[0,0.5],[1,0.5]];portConstraint=eastwest;" vertex="1" parent="SeN86KywqC2dADdFLRv4-21">
          <mxGeometry y="60" width="210" height="26" as="geometry" />
        </mxCell>
        <mxCell id="SeN86KywqC2dADdFLRv4-57" value="/ numberOfCorrectAnswers: number" style="text;strokeColor=none;fillColor=none;align=left;verticalAlign=top;spacingLeft=4;spacingRight=4;overflow=hidden;rotatable=0;points=[[0,0.5],[1,0.5]];portConstraint=eastwest;" vertex="1" parent="SeN86KywqC2dADdFLRv4-21">
          <mxGeometry y="86" width="210" height="26" as="geometry" />
        </mxCell>
        <mxCell id="SeN86KywqC2dADdFLRv4-59" value="1..*" style="text;html=1;align=center;verticalAlign=middle;resizable=0;points=[];autosize=1;" vertex="1" parent="1">
          <mxGeometry x="495" y="170" width="30" height="20" as="geometry" />
        </mxCell>
        <mxCell id="SeN86KywqC2dADdFLRv4-60" value="1" style="text;html=1;align=center;verticalAlign=middle;resizable=0;points=[];autosize=1;" vertex="1" parent="1">
          <mxGeometry x="394" y="130" width="20" height="20" as="geometry" />
        </mxCell>
        <mxCell id="SeN86KywqC2dADdFLRv4-61" value="1..*" style="text;html=1;align=center;verticalAlign=middle;resizable=0;points=[];autosize=1;" vertex="1" parent="1">
          <mxGeometry x="605" y="124" width="30" height="20" as="geometry" />
        </mxCell>
        <mxCell id="SeN86KywqC2dADdFLRv4-62" value="1..*" style="text;html=1;align=center;verticalAlign=middle;resizable=0;points=[];autosize=1;" vertex="1" parent="1">
          <mxGeometry x="310" y="252" width="30" height="20" as="geometry" />
        </mxCell>
        <mxCell id="SeN86KywqC2dADdFLRv4-63" value="0..12" style="text;html=1;align=center;verticalAlign=middle;resizable=0;points=[];autosize=1;" vertex="1" parent="1">
          <mxGeometry x="379" y="380" width="40" height="20" as="geometry" />
        </mxCell>
        <mxCell id="SeN86KywqC2dADdFLRv4-65" value="1" style="text;html=1;align=center;verticalAlign=middle;resizable=0;points=[];autosize=1;" vertex="1" parent="1">
          <mxGeometry x="505" y="450" width="20" height="20" as="geometry" />
        </mxCell>
        <mxCell id="SeN86KywqC2dADdFLRv4-66" value="1" style="text;html=1;align=center;verticalAlign=middle;resizable=0;points=[];autosize=1;" vertex="1" parent="1">
          <mxGeometry x="260" y="350" width="20" height="20" as="geometry" />
        </mxCell>
        <mxCell id="SeN86KywqC2dADdFLRv4-69" value="1" style="text;html=1;align=center;verticalAlign=middle;resizable=0;points=[];autosize=1;" vertex="1" parent="1">
          <mxGeometry x="680" y="400" width="20" height="20" as="geometry" />
        </mxCell>
        <mxCell id="SeN86KywqC2dADdFLRv4-70" value="1" style="text;html=1;align=center;verticalAlign=middle;resizable=0;points=[];autosize=1;" vertex="1" parent="1">
          <mxGeometry x="500" y="560" width="20" height="20" as="geometry" />
        </mxCell>
        <mxCell id="SeN86KywqC2dADdFLRv4-71" value="1" style="text;html=1;align=center;verticalAlign=middle;resizable=0;points=[];autosize=1;" vertex="1" parent="1">
          <mxGeometry x="310" y="110" width="20" height="20" as="geometry" />
        </mxCell>
        <mxCell id="SeN86KywqC2dADdFLRv4-72" value="*" style="text;html=1;align=center;verticalAlign=middle;resizable=0;points=[];autosize=1;" vertex="1" parent="1">
          <mxGeometry x="310" y="525" width="20" height="20" as="geometry" />
        </mxCell>
        <mxCell id="SeN86KywqC2dADdFLRv4-73" value="*" style="text;html=1;align=center;verticalAlign=middle;resizable=0;points=[];autosize=1;" vertex="1" parent="1">
          <mxGeometry x="315" y="450" width="20" height="20" as="geometry" />
        </mxCell>
        <mxCell id="SeN86KywqC2dADdFLRv4-79" style="edgeStyle=orthogonalEdgeStyle;rounded=0;orthogonalLoop=1;jettySize=auto;html=1;" edge="1" parent="1" source="SeN86KywqC2dADdFLRv4-14" target="SeN86KywqC2dADdFLRv4-75">
          <mxGeometry relative="1" as="geometry" />
        </mxCell>
        <mxCell id="SeN86KywqC2dADdFLRv4-14" value="Question" style="swimlane;fontStyle=1;align=center;verticalAlign=top;childLayout=stackLayout;horizontal=1;startSize=26;horizontalStack=0;resizeParent=1;resizeParentMax=0;resizeLast=0;collapsible=1;marginBottom=0;" vertex="1" parent="1">
          <mxGeometry x="90" y="317" width="160" height="86" as="geometry" />
        </mxCell>
        <mxCell id="SeN86KywqC2dADdFLRv4-15" value="+ question: string" style="text;strokeColor=none;fillColor=none;align=left;verticalAlign=top;spacingLeft=4;spacingRight=4;overflow=hidden;rotatable=0;points=[[0,0.5],[1,0.5]];portConstraint=eastwest;" vertex="1" parent="SeN86KywqC2dADdFLRv4-14">
          <mxGeometry y="26" width="160" height="26" as="geometry" />
        </mxCell>
        <mxCell id="SeN86KywqC2dADdFLRv4-16" value="" style="line;strokeWidth=1;fillColor=none;align=left;verticalAlign=middle;spacingTop=-1;spacingLeft=3;spacingRight=3;rotatable=0;labelPosition=right;points=[];portConstraint=eastwest;" vertex="1" parent="SeN86KywqC2dADdFLRv4-14">
          <mxGeometry y="52" width="160" height="8" as="geometry" />
        </mxCell>
        <mxCell id="SeN86KywqC2dADdFLRv4-53" value="+ correctAnswer: string" style="text;strokeColor=none;fillColor=none;align=left;verticalAlign=top;spacingLeft=4;spacingRight=4;overflow=hidden;rotatable=0;points=[[0,0.5],[1,0.5]];portConstraint=eastwest;" vertex="1" parent="SeN86KywqC2dADdFLRv4-14">
          <mxGeometry y="60" width="160" height="26" as="geometry" />
        </mxCell>
        <mxCell id="SeN86KywqC2dADdFLRv4-75" value="Category" style="swimlane;fontStyle=1;align=center;verticalAlign=top;childLayout=stackLayout;horizontal=1;startSize=26;horizontalStack=0;resizeParent=1;resizeParentMax=0;resizeLast=0;collapsible=1;marginBottom=0;" vertex="1" parent="1">
          <mxGeometry x="90" y="460" width="160" height="60" as="geometry" />
        </mxCell>
        <mxCell id="SeN86KywqC2dADdFLRv4-76" value="+ categoryName: string" style="text;strokeColor=none;fillColor=none;align=left;verticalAlign=top;spacingLeft=4;spacingRight=4;overflow=hidden;rotatable=0;points=[[0,0.5],[1,0.5]];portConstraint=eastwest;" vertex="1" parent="SeN86KywqC2dADdFLRv4-75">
          <mxGeometry y="26" width="160" height="26" as="geometry" />
        </mxCell>
        <mxCell id="SeN86KywqC2dADdFLRv4-77" value="" style="line;strokeWidth=1;fillColor=none;align=left;verticalAlign=middle;spacingTop=-1;spacingLeft=3;spacingRight=3;rotatable=0;labelPosition=right;points=[];portConstraint=eastwest;" vertex="1" parent="SeN86KywqC2dADdFLRv4-75">
          <mxGeometry y="52" width="160" height="8" as="geometry" />
        </mxCell>
        <mxCell id="SeN86KywqC2dADdFLRv4-80" value="1" style="text;html=1;align=center;verticalAlign=middle;resizable=0;points=[];autosize=1;" vertex="1" parent="1">
          <mxGeometry x="170" y="440" width="20" height="20" as="geometry" />
        </mxCell>
        <mxCell id="SeN86KywqC2dADdFLRv4-81" value="*" style="text;html=1;align=center;verticalAlign=middle;resizable=0;points=[];autosize=1;" vertex="1" parent="1">
          <mxGeometry x="150" y="403" width="20" height="20" as="geometry" />
        </mxCell>
        <mxCell id="SeN86KywqC2dADdFLRv4-82" value="1..*" style="text;html=1;align=center;verticalAlign=middle;resizable=0;points=[];autosize=1;" vertex="1" parent="1">
          <mxGeometry x="220" y="230" width="30" height="20" as="geometry" />
        </mxCell>
        <mxCell id="SeN86KywqC2dADdFLRv4-83" value="1..*" style="text;html=1;align=center;verticalAlign=middle;resizable=0;points=[];autosize=1;" vertex="1" parent="1">
          <mxGeometry x="100" y="230" width="30" height="20" as="geometry" />
        </mxCell>
        <mxCell id="SeN86KywqC2dADdFLRv4-84" value="*" style="text;html=1;align=center;verticalAlign=middle;resizable=0;points=[];autosize=1;" vertex="1" parent="1">
          <mxGeometry x="615" y="390" width="20" height="20" as="geometry" />
        </mxCell>
        <mxCell id="SeN86KywqC2dADdFLRv4-85" value="1" style="text;html=1;align=center;verticalAlign=middle;resizable=0;points=[];autosize=1;" vertex="1" parent="1">
          <mxGeometry x="610" y="270" width="20" height="20" as="geometry" />
        </mxCell>
        <mxCell id="SeN86KywqC2dADdFLRv4-86" value="*" style="text;html=1;align=center;verticalAlign=middle;resizable=0;points=[];autosize=1;" vertex="1" parent="1">
          <mxGeometry x="650" y="310" width="20" height="20" as="geometry" />
        </mxCell>
        <mxCell id="SeN86KywqC2dADdFLRv4-88" value="1..*" style="text;html=1;align=center;verticalAlign=middle;resizable=0;points=[];autosize=1;" vertex="1" parent="1">
          <mxGeometry x="640" y="140" width="30" height="20" as="geometry" />
        </mxCell>
        <mxCell id="SeN86KywqC2dADdFLRv4-89" value="1" style="text;html=1;align=center;verticalAlign=middle;resizable=0;points=[];autosize=1;" vertex="1" parent="1">
          <mxGeometry x="394" y="310" width="20" height="20" as="geometry" />
        </mxCell>
        <mxCell id="SeN86KywqC2dADdFLRv4-93" style="edgeStyle=orthogonalEdgeStyle;rounded=0;orthogonalLoop=1;jettySize=auto;html=1;" edge="1" parent="1" source="SeN86KywqC2dADdFLRv4-90" target="SeN86KywqC2dADdFLRv4-27">
          <mxGeometry relative="1" as="geometry" />
        </mxCell>
        <mxCell id="SeN86KywqC2dADdFLRv4-90" value="ScoreBoard" style="swimlane;fontStyle=1;align=center;verticalAlign=top;childLayout=stackLayout;horizontal=1;startSize=26;horizontalStack=0;resizeParent=1;resizeParentMax=0;resizeLast=0;collapsible=1;marginBottom=0;" vertex="1" parent="1">
          <mxGeometry x="-130" y="263" width="160" height="34" as="geometry" />
        </mxCell>
        <mxCell id="SeN86KywqC2dADdFLRv4-92" value="" style="line;strokeWidth=1;fillColor=none;align=left;verticalAlign=middle;spacingTop=-1;spacingLeft=3;spacingRight=3;rotatable=0;labelPosition=right;points=[];portConstraint=eastwest;" vertex="1" parent="SeN86KywqC2dADdFLRv4-90">
          <mxGeometry y="26" width="160" height="8" as="geometry" />
        </mxCell>
      </root>
    </mxGraphModel>
  </diagram>
</mxfile>
